<svg xmlns="http://www.w3.org/2000/svg" viewBox="0 0 9.45 8.06"><defs><style>.cls-1{isolation:isolate;}.cls-2{fill:#fff;}</style></defs><g id="Layer_2" data-name="Layer 2"><g id="Layer_1-2" data-name="Layer 1"><g id="Layer_2-2" data-name="Layer 2"><g id="Layer_1-2-2" data-name="Layer 1-2"><g class="cls-1"><path class="cls-2" d="M5,7.94H5c.19,0,.28-.08.28-.26a.75.75,0,0,0,0-.2L4.19,4.56H2.09L1,7.43a.57.57,0,0,0,0,.18.36.36,0,0,0,.08.24.26.26,0,0,0,.18.09h.06v.12H0V7.94H.06a.43.43,0,0,0,.31-.18,1.55,1.55,0,0,0,.24-.44L3.36,0,6.05,7.25a2,2,0,0,0,.23.47.45.45,0,0,0,.39.22h.06v.12H5ZM2.21,4.15H4.06L3.13,1.64Z"/></g><g class="cls-1"><path class="cls-2" d="M7.68,7.94h.06c.19,0,.28-.08.28-.26a.75.75,0,0,0,0-.2L6.91,4.56H4.81l-1,2.87a.57.57,0,0,0,0,.18.36.36,0,0,0,.08.24A.26.26,0,0,0,4,7.94h.06v.12H2.72V7.94h.06a.43.43,0,0,0,.31-.18,1.55,1.55,0,0,0,.24-.44L6.08,0,8.77,7.25A2,2,0,0,0,9,7.72a.45.45,0,0,0,.39.22h.06v.12H7.68ZM4.93,4.15H6.78L5.85,1.64Z"/></g></g></g></g></g></svg>